<svg width="1024" height="500" viewBox="0 0 1024 500" fill="none" xmlns="http://www.w3.org/2000/svg"><rect width="1024" height="500" fill="#0A0A0A"/><g transform="translate(400, 0)"><defs><radialGradient id="orbGradient" cx="0.5" cy="0.5" r="0.5" fx="0.5" fy="0.5"><stop offset="0%" stop-color="#E69C3B"/><stop offset="60%" stop-color="#D45D79"/><stop offset="100%" stop-color="#6A1B9A" stop-opacity="0"/></radialGradient><filter id="orbBlur"><feGaussianBlur in="SourceGraphic" stdDeviation="60"/></filter></defs><circle cx="600" cy="250" r="600" fill="url(#orbGradient)" filter="url(#orbBlur)" opacity="0.8"/></g><g transform="translate(80, 200)"><g transform="translate(0, 0)"><svg x="0" y="-19.2" width="96" height="96" viewBox="0 0 1024 1024" fill="none" xmlns="http://www.w3.org/2000/svg"><path d="M512 100 L580 440 L920 512 L580 584 L512 924 L444 584 L104 512 L444 440 Z" fill="#FFC84B"/><path d="M320 380 L420 700 L512 500 L604 700 L704 380 L620 380 L560 580 L512 460 L464 580 L404 380 Z" fill="#FFFFFF"/></svg><text x="128" y="48" font-size="64" font-family="Inter, SF Pro Display, -apple-system, BlinkMacSystemFont, Segoe UI, Roboto, sans-serif" font-weight="800" fill="#EBEBEB" letter-spacing="0.1em" dominant-baseline="middle">WANDERCAST</text></g></g><text x="80" y="300" font-size="32" font-family="Inter, SF Pro Display, -apple-system, BlinkMacSystemFont, Segoe UI, Roboto, sans-serif" font-weight="400" fill="#EBEBEB" opacity="0.6" text-anchor="start" letter-spacing="0.05em">Your AI tour guide</text></svg>