<svg width="1200" height="600" viewBox="0 0 1200 600" fill="none" xmlns="http://www.w3.org/2000/svg"><rect width="1200" height="600" fill="#EBEBEB"/><g transform="translate(400, 180)"><defs><radialGradient id="orbGradient" cx="0.5" cy="0.5" r="0.5" fx="0.5" fy="0.5"><stop offset="0%" stop-color="#E69C3B"/><stop offset="60%" stop-color="#D45D79"/><stop offset="100%" stop-color="#6A1B9A" stop-opacity="0"/></radialGradient><filter id="orbBlur"><feGaussianBlur in="SourceGraphic" stdDeviation="60"/></filter></defs><circle cx="600" cy="400" r="600" fill="url(#orbGradient)" filter="url(#orbBlur)" opacity="0.8"/></g><g transform="translate(600, 220)"><g transform="translate(-285, 0)"><svg x="0" y="-18" width="90" height="90" viewBox="0 0 1024 1024" fill="none" xmlns="http://www.w3.org/2000/svg"><path d="M512 100 L580 440 L920 512 L580 584 L512 924 L444 584 L104 512 L444 440 Z" fill="#FFC84B"/><path d="M320 380 L420 700 L512 500 L604 700 L704 380 L620 380 L560 580 L512 460 L464 580 L404 380 Z" fill="#FFFFFF"/></svg><text x="120" y="45" font-size="60" font-family="Inter, SF Pro Display, -apple-system, BlinkMacSystemFont, Segoe UI, Roboto, sans-serif" font-weight="800" fill="#0A0A0A" letter-spacing="0.1em" dominant-baseline="middle">WANDERCAST</text></g></g><text x="600" y="340" font-size="32" font-family="Inter, SF Pro Display, -apple-system, BlinkMacSystemFont, Segoe UI, Roboto, sans-serif" font-weight="400" fill="#0A0A0A" opacity="0.4" text-anchor="middle" letter-spacing="0.05em">AI-powered audio tours</text></svg>